<svg width="86" height="60" viewBox="0 0 86 60" fill="none" xmlns="http://www.w3.org/2000/svg">
<path d="M85.3535 4.85355C85.5488 4.65829 85.5488 4.34171 85.3535 4.14645L82.1716 0.964466C81.9763 0.769204 81.6597 0.769204 81.4645 0.964466C81.2692 1.15973 81.2692 1.47631 81.4645 1.67157L84.2929 4.5L81.4645 7.32843C81.2692 7.52369 81.2692 7.84027 81.4645 8.03553C81.6597 8.2308 81.9763 8.2308 82.1716 8.03553L85.3535 4.85355ZM1.49704 59.4458C0.513221 50.4274 3.46236 36.8355 15.5915 25.4902C27.7197 14.1458 49.0802 5 85 5V4C48.9198 4 27.2803 13.1876 14.9084 24.7598C2.53762 36.3312 -0.513243 50.2392 0.502938 59.5542L1.49704 59.4458Z" fill="black"/>
</svg>
