<svg width="27" height="35" viewBox="0 0 27 35" fill="none" xmlns="http://www.w3.org/2000/svg">
<path d="M0.626333 30.7549C0.451067 30.9683 0.481975 31.2834 0.695367 31.4587L4.1728 34.3148C4.3862 34.4901 4.70127 34.4592 4.87653 34.2458C5.0518 34.0324 5.02089 33.7173 4.8075 33.542L1.71644 31.0033L4.25522 27.9122C4.43049 27.6988 4.39958 27.3837 4.18619 27.2085C3.97279 27.0332 3.65772 27.0641 3.48246 27.2775L0.626333 30.7549ZM25.077 0.878639C24.9927 5.448 23.6777 12.4318 20.0178 18.4919C16.369 24.5339 10.3989 29.6491 0.9639 30.5747L1.06153 31.5699C10.867 30.608 17.0935 25.2685 20.8738 19.0089C24.6431 12.7675 25.99 5.60276 26.0768 0.897092L25.077 0.878639Z" fill="black"/>
</svg>
