<svg width="93" height="40" viewBox="0 0 93 40" fill="none" xmlns="http://www.w3.org/2000/svg">
<path d="M92.9076 35.7896C93.0675 35.5645 93.0147 35.2524 92.7896 35.0924L89.1215 32.4857C88.8964 32.3258 88.5843 32.3786 88.4243 32.6037C88.2644 32.8288 88.3172 33.1409 88.5422 33.3009L91.8028 35.6179L89.4857 38.8785C89.3258 39.1036 89.3786 39.4157 89.6037 39.5757C89.8288 39.7356 90.1409 39.6828 90.3009 39.4578L92.9076 35.7896ZM1.0083 0.909297C-0.608662 9.67492 2.11136 21.9135 15.3976 30.2116C28.6477 38.4871 52.3384 42.8006 92.5834 35.993L92.4166 35.007C52.2616 41.7994 28.869 37.4463 15.9274 29.3634C3.02197 21.3032 0.441999 9.49174 1.99171 1.0907L1.0083 0.909297Z" fill="black"/>
</svg>
