<svg width="85" height="40" viewBox="0 0 85 40" fill="none" xmlns="http://www.w3.org/2000/svg">
<path d="M0.646447 35.6464C0.451184 35.8417 0.451184 36.1583 0.646447 36.3536L3.82843 39.5355C4.02369 39.7308 4.34027 39.7308 4.53553 39.5355C4.7308 39.3403 4.7308 39.0237 4.53553 38.8284L1.70711 36L4.53553 33.1716C4.7308 32.9763 4.7308 32.6597 4.53553 32.4645C4.34027 32.2692 4.02369 32.2692 3.82843 32.4645L0.646447 35.6464ZM84 0.5C84 12.6905 75.1702 21.4372 60.2708 27.1582C45.379 32.8763 24.5748 35.5 1 35.5V36.5C24.6252 36.5 45.571 33.8737 60.6292 28.0918C75.6798 22.3128 85 13.3095 85 0.5H84Z" fill="black"/>
</svg>
