<svg width="31" height="30" viewBox="0 0 31 30" fill="none" xmlns="http://www.w3.org/2000/svg">
<path d="M29.8873 26.5235C30.0969 26.3437 30.1212 26.0281 29.9415 25.8184L27.0129 22.4018C26.8332 22.1922 26.5175 22.1679 26.3079 22.3476C26.0982 22.5273 26.0739 22.843 26.2536 23.0526L28.8568 26.0896L25.8198 28.6928C25.6102 28.8725 25.5859 29.1882 25.7656 29.3978C25.9453 29.6075 26.261 29.6318 26.4707 29.4521L29.8873 26.5235ZM0.344382 0.928C0.937165 8.8314 7.62979 24.9585 29.5235 26.6424L29.6002 25.6453C8.32524 24.0091 1.90776 8.40192 1.34158 0.853206L0.344382 0.928Z" fill="black"/>
</svg>
