<svg width="296" height="102" viewBox="0 0 296 102" fill="none" xmlns="http://www.w3.org/2000/svg">
<mask id="mask0_2005_382" style="mask-type:luminance" maskUnits="userSpaceOnUse" x="89" y="23" width="207" height="67">
<path d="M296 23.0676H89.9358V89.0615H296V23.0676Z" fill="white"/>
</mask>
<g mask="url(#mask0_2005_382)">
<path d="M106.953 46.9739V56.5993C106.953 60.8668 105.518 64.3688 102.972 64.5785C99.3943 64.8721 97.6057 65.0189 94.0386 65.3125C90.9565 65.5641 89.946 62.5549 89.946 58.1301V31.634C89.9359 25.5107 91.3001 23.0676 93.7455 23.0676H102.759C106.134 23.0676 106.387 26.3914 106.387 28.4256V38.8269C104.295 38.8898 103.244 38.9212 101.143 38.9946V34.6118C101.143 32.3575 100.86 31.4558 99.9602 31.4663C98.7072 31.4872 98.0908 31.4977 96.8377 31.5187C95.9384 31.5292 95.7565 33.427 95.7565 34.8635V51.3567C95.7565 53.8312 96.2213 55.3725 97.1914 55.3096C98.1716 55.2467 98.6566 55.2152 99.6267 55.1523C100.738 55.0789 101.132 53.3803 101.132 52.6673V47.2465C103.457 47.1312 104.619 47.0787 106.943 46.9739H106.953Z" fill="white"/>
<path d="M129.235 30.984V54.5023C129.235 60.1643 127.871 62.5339 125.425 62.7331C121.12 63.0896 118.968 63.2574 114.653 63.6139C112.208 63.8131 110.843 61.5902 110.843 55.6976V31.288C110.843 25.4058 112.208 23.0676 114.653 23.0676H125.425C127.861 23.0676 129.235 25.3219 129.235 30.984ZM123.455 51.7342V34.2239C123.455 32.8713 123.525 31.0783 122.343 31.0993C120.504 31.1307 119.584 31.1412 117.745 31.1727C116.563 31.1937 116.664 33.0076 116.664 34.3812V52.1326C116.664 53.5062 116.553 55.3306 117.745 55.2467C119.584 55.1314 120.504 55.0685 122.343 54.9426C123.525 54.8692 123.455 53.0868 123.455 51.7237V51.7342Z" fill="white"/>
<path d="M146.535 23.0676H152.527V60.5208C150.132 60.72 148.93 60.8143 146.535 61.0136C143.766 53.5796 142.382 49.8049 139.603 42.1507V61.5798C137.208 61.779 136.005 61.8733 133.61 62.0726V23.0676H139.603C142.371 30.8162 143.756 34.6328 146.535 42.1612V23.0676Z" fill="white"/>
<path d="M173.132 23.0676V31.3719C170.807 31.4138 169.645 31.4348 167.311 31.4872V59.315C164.896 59.5142 163.693 59.6085 161.278 59.8078V31.5921C158.954 31.634 157.792 31.655 155.468 31.7074V23.0676H173.132Z" fill="white"/>
<path d="M195.464 56.9977C192.594 57.2284 191.159 57.3542 188.289 57.5849C186.925 52.8456 186.248 50.455 184.884 45.6318C183.752 45.6947 183.186 45.7261 182.044 45.7786V58.0882C179.649 58.2874 178.447 58.3818 176.052 58.581V23.0676H190.017C192.463 23.0676 193.827 25.0179 193.827 29.9249V38.3131C193.827 42.0039 193.069 44.0485 191.634 44.8664C193.17 49.7734 193.938 52.1955 195.474 57.0082L195.464 56.9977ZM182.034 30.1137V38.03C183.974 37.9671 184.944 37.9252 186.885 37.8622C188.067 37.8203 187.996 36.3209 187.996 35.0941V32.7455C187.996 31.5711 188.067 30.0193 186.885 30.0403C184.944 30.0717 183.974 30.0927 182.034 30.1242V30.1137Z" fill="white"/>
<path d="M218.039 55.1521C215.482 55.3618 214.209 55.4667 211.652 55.6764C211.006 52.1743 210.682 50.4233 210.036 46.8898C207.792 47.0261 206.681 47.089 204.437 47.2253C203.76 50.8846 203.427 52.7195 202.75 56.4103C200.496 56.5991 199.365 56.6829 197.111 56.8717C199.385 45.6001 201.679 34.339 204.003 23.0779H211.147C213.401 33.7833 215.694 44.4782 218.039 55.1626V55.1521ZM205.801 39.7703C206.964 39.7179 207.55 39.6969 208.712 39.655C208.156 36.4885 207.873 34.8947 207.307 31.6967C206.701 34.9157 206.398 36.5304 205.801 39.7703Z" fill="white"/>
<path d="M240.331 53.3279C237.461 53.5586 236.026 53.6844 233.156 53.9151C231.792 49.6895 231.115 47.561 229.751 43.2621C228.619 43.325 228.053 43.3565 226.911 43.4089V54.4289C224.516 54.6281 223.314 54.7224 220.919 54.9217V23.0676H234.884C237.33 23.0676 238.694 24.8082 238.694 29.1805V36.6564C238.694 39.9488 237.936 41.7732 236.501 42.5072C238.037 46.8795 238.805 49.0395 240.341 53.3174L240.331 53.3279ZM226.901 29.3797V36.4677C228.841 36.4048 229.811 36.3629 231.751 36.2999C232.934 36.258 232.863 34.9264 232.863 33.8254V31.7179C232.863 30.6694 232.934 29.2749 231.751 29.2958C229.811 29.3273 228.841 29.3483 226.901 29.3797Z" fill="white"/>
<path d="M243.635 53.0983V23.1106C246.131 23.1106 247.384 23.1106 249.88 23.1106V52.5845C247.384 52.7942 246.131 52.8886 243.635 53.0983Z" fill="white"/>
<path d="M273.637 50.6018C271.081 50.8115 269.808 50.9163 267.251 51.126C266.604 48.1272 266.281 46.6174 265.634 43.5767L260.036 43.9122C259.359 47.0787 259.025 48.662 258.348 51.8495C256.095 52.0382 254.963 52.1221 252.71 52.3108C254.963 42.5491 257.257 32.7979 259.601 23.0676H266.746C269.504 34.3078 270.879 39.8125 273.637 50.6018ZM261.4 37.4743C262.562 37.4219 263.148 37.4009 264.31 37.359C263.755 34.6328 263.472 33.2592 262.906 30.5121C262.299 33.2907 261.996 34.6852 261.4 37.4743Z" fill="white"/>
<path d="M289.432 23.0676H295.424V48.8088C293.029 49.008 291.827 49.1024 289.432 49.3016C286.663 44.2372 285.278 41.6369 282.51 36.3419V49.8678C280.115 50.067 278.912 50.1614 276.517 50.3606V23.0676H282.51C285.278 28.457 286.663 31.0993 289.432 36.2685V23.0676Z" fill="white"/>
<path d="M152.78 64.4004V70.7859C150.264 70.9536 149 71.048 146.474 71.2158V89.0196C143.857 89.0196 142.553 89.0196 139.936 89.0196V71.6561C137.42 71.8239 136.157 71.9183 133.641 72.086C133.641 70.0414 133.61 68.0283 133.61 65.9837C141.26 65.3021 145.12 65.0714 152.78 64.4004Z" fill="white"/>
<path d="M174.95 62.6074V89.0196C172.333 89.0196 171.03 89.0196 168.412 89.0196V79.1216C165.876 79.2055 164.613 79.2579 162.077 79.3418V89.0196C159.479 89.0196 158.176 89.0196 155.579 89.0196V64.1907C158.176 63.96 159.479 63.8447 162.077 63.614V73.858C164.613 73.7217 165.876 73.6483 168.412 73.512V63.1841C171.03 62.9534 172.333 62.8381 174.95 62.6074Z" fill="white"/>
<path d="M179.821 89.0608V62.1663C182.529 61.9251 183.883 61.8098 186.592 61.5686V89.0608H179.821Z" fill="white"/>
<path d="M205.448 60.1331C208.045 59.9024 209.348 59.7871 211.945 59.5564V89.0199C209.348 89.0199 208.045 89.0199 205.448 89.0199C202.447 83.274 200.941 80.4744 197.94 75.0011V89.0199C195.343 89.0199 194.039 89.0199 191.442 89.0199V61.2235C194.039 60.9929 195.343 60.8775 197.94 60.6469C200.941 65.9733 202.447 69.2867 205.448 74.8858V60.1331Z" fill="white"/>
<path d="M237.461 89.0101C234.237 89.0101 232.631 89.0101 229.407 89.0101C227.77 84.4281 226.962 82.1633 225.325 77.6966C224.496 77.728 224.092 77.7385 223.263 77.77V89.0625H216.846V59.1692C219.413 58.9386 220.696 58.8232 223.263 58.603V70.8917C223.869 70.8602 224.173 70.8393 224.779 70.8078C226.83 65.9112 228.184 63.0907 230.246 58.0578C233.186 57.7957 234.662 57.6698 237.602 57.4077C235.046 63.3633 233.449 66.6347 230.892 72.3806C233.52 78.9129 234.833 82.2367 237.471 89.0101H237.461Z" fill="white"/>
<path d="M240.694 89.0616V57.2285C243.403 56.9874 244.757 56.872 247.465 56.6309V89.0616H240.694Z" fill="white"/>
<path d="M266.331 55.0579C268.928 54.8272 270.232 54.7119 272.829 54.4812V88.9985C270.232 88.9985 268.928 88.9985 266.331 88.9985C263.33 82.1726 261.824 78.8174 258.823 72.2536V88.9985C256.226 88.9985 254.923 88.9985 252.326 88.9985V56.1903C254.923 55.9596 256.226 55.8443 258.823 55.6136C261.824 62.0201 263.33 65.5011 266.331 72.1802V55.0474V55.0579Z" fill="white"/>
<path d="M296 70.0315V82.2258C296 86.0109 294.444 88.9992 291.685 88.9992C287.815 88.9992 285.875 88.9992 282.005 88.9992C278.66 88.9992 277.568 86.4618 277.568 82.8549V61.1715C277.568 56.1596 279.044 54.0311 281.691 53.7899C283.763 53.6012 284.794 53.5173 286.865 53.3286C286.865 53.3286 287.795 53.2447 291.453 52.9196C295.111 52.5946 295.384 55.499 295.384 57.3025V66.4875C293.11 66.6133 291.978 66.6762 289.705 66.8021V63.0169C289.705 61.0666 289.391 60.3117 288.421 60.3851C287.067 60.4795 286.39 60.5319 285.036 60.6263C284.066 60.6997 283.864 62.2934 283.864 63.4992V77.3606C283.864 79.4472 284.369 80.7474 285.42 80.7264C286.481 80.7054 287.007 80.6949 288.068 80.674C289.27 80.653 289.705 79.1956 289.705 78.5874V78.3672C288.775 78.3882 288.3 78.4092 287.37 78.4301V70.4194C290.826 70.2622 292.554 70.1783 296 70.021V70.0315Z" fill="white"/>
</g>
<mask id="mask1_2005_382" style="mask-type:luminance" maskUnits="userSpaceOnUse" x="0" y="0" width="65" height="102">
<path d="M64.774 0H0V102H64.774V0Z" fill="white"/>
</mask>
<g mask="url(#mask1_2005_382)">
<path d="M42.6141 58.2661C43.7459 57.312 44.1097 56.0642 45.4738 55.4142C46.7976 54.785 48.0001 54.2713 48.8995 53.0864C49.4047 52.4259 49.5967 51.8492 49.7382 50.6434C49.8494 49.7102 49.9908 47.8334 50.7892 47.351C51.3651 47.005 52.2443 47.0784 52.4363 47.9382C52.6283 48.798 53.6186 50.7692 54.3361 50.8636C55.4274 50.9999 55.9731 50.224 56.2358 49.8885C56.8421 49.1021 57.5091 48.1794 57.5192 48.1899L59.035 48.7665C59.4594 48.8085 59.6918 48.1794 59.8838 47.7809C60.8034 45.8202 62.2181 42.8739 62.7435 42.3286C63.077 42.3077 62.7435 42.2028 63.1478 42.3915C63.5924 42.6012 64.0067 42.6117 64.2997 42.1923C64.5928 41.7834 64.5018 41.2382 64.1785 40.8502L63.8046 40.3155C63.6934 39.0782 62.8143 35.356 58.4994 32.7871C57.0645 31.9273 55.6497 31.7281 54.3057 32.1999C54.3057 32.0951 54.3159 31.9797 54.3159 31.8749C54.3159 31.7491 54.3664 31.6232 54.4775 31.5079C55.4274 30.4489 56.0337 29.2221 56.2965 27.8591C56.5087 26.7267 56.4885 25.5209 56.0944 24.4304C55.8923 23.8537 55.5083 23.3819 55.2657 22.8262C54.9828 22.1656 55.0939 21.6413 55.1041 20.9493C55.1445 19.4185 54.6089 18.1812 53.4771 17.1851C53.1234 16.881 52.3352 16.556 52.0826 16.21C51.7087 15.6648 51.8401 14.8574 51.638 14.2493C51.3854 13.4838 50.8397 12.7709 50.2839 12.2151C49.5159 11.4497 48.5155 10.9989 47.7778 10.2019C46.9694 9.33167 46.454 8.27267 45.5042 7.49676C45.2515 7.29754 44.3724 6.53213 43.9884 6.6894C43.372 6.94105 44.1703 8.29364 44.3421 8.71305C44.6048 9.3841 44.7867 10.2544 45.3425 10.7053C44.7463 11.2086 44.1602 11.7118 43.564 12.2151C43.7661 12.0474 41.6743 11.2715 41.5025 11.24C40.7345 11.1247 39.7948 10.9464 39.0268 11.261C38.5215 11.4602 37.2078 13.2112 38.1981 12.8757C38.9156 12.6345 39.7038 12.5297 40.4314 12.7499C41.1589 12.9806 42.4423 13.4314 42.5636 14.2073C42.7151 15.1824 42.3109 16.21 41.7653 16.9754C41.6036 17.1956 40.0979 18.7894 40.5021 18.9361C40.967 19.1039 43.4124 17.5416 43.6953 17.1222C43.9783 16.7133 44.0894 16.1995 44.2309 15.7172C44.6654 14.2283 44.9686 11.8482 46.454 12.0579C47.798 12.2466 49.3845 14.6058 49.5462 16.0003C49.617 16.577 49.6372 17.2061 49.9706 17.6779C50.4153 18.307 51.2439 18.4643 51.8603 18.9047C52.5475 19.408 52.9416 20.3097 52.8405 21.18C52.7698 21.7776 52.4868 22.3753 52.6182 22.9625C52.7293 23.4343 53.083 23.8013 53.3559 24.1892C54.235 25.437 54.3462 27.2299 53.6186 28.5825C53.0931 29.5577 52.1635 30.344 52.0321 31.4555C51.9614 32.0741 52.1129 32.8186 51.6683 33.2275C51.4056 33.4686 51.0317 33.5001 50.7083 33.6574C50.1222 33.951 49.8494 34.643 49.4553 35.1777C48.6064 36.3311 46.5955 36.9917 45.201 36.8763C43.8065 36.761 43.0082 35.9431 41.7956 35.2197C41.3509 34.9575 40.8356 34.6639 40.3505 34.8317C39.8453 34.9995 39.5927 35.5762 39.3097 36.048C38.1072 38.0612 35.4394 38.6903 33.2264 38.1031C31.0134 37.5159 29.1742 35.9641 27.4867 34.3704C25.7991 32.7766 24.152 31.0675 22.0905 30.04C21.7369 29.8617 21.3225 29.7044 20.9689 29.8617C20.4939 30.0714 21.5348 30.8159 21.7267 31.2982C21.9187 31.791 22.6665 32.137 23.0707 32.4621C24.4147 33.5525 25.0513 35.0834 26.3852 36.1738C25.8496 36.8554 24.061 36.4045 23.2324 36.2053C22.4038 35.9956 21.6257 35.5866 20.787 35.5028C18.7659 35.314 16.7348 37.0755 14.835 36.3206C13.2788 35.7125 14.734 33.0912 11.6721 32.4411C10.5707 32.2104 9.97449 30.8788 8.88313 30.5852C8.60019 30.5118 8.29704 30.4489 8.09493 30.2287C7.91304 30.019 7.86251 29.7149 7.89283 29.4318C8.04441 28.3099 9.36818 27.7647 10.4595 27.8695C11.5509 27.9744 11.9955 27.0307 13.0868 27.0517C13.8043 27.0727 15.2595 28.1526 15.2999 27.4187C15.3403 26.6428 14.4814 26.1919 13.7639 26.0137C12.4906 25.6991 11.177 25.5733 9.87344 25.6572C9.05492 25.7096 8.19598 25.8354 7.45831 25.4579C6.41748 24.9232 6.02338 23.5811 5.91222 22.3858C5.59896 19.1144 6.53874 15.7382 8.48903 13.1483C9.02461 12.4353 9.65113 11.7643 10.4393 11.3763C11.2275 10.9884 12.1976 10.9255 12.9555 11.3868C14.3096 12.2256 14.3298 14.2073 14.1984 15.843C15.5727 14.6162 15.8354 12.278 14.7845 10.7577C14.3702 10.1705 13.5719 9.42604 13.5719 8.65014C13.5719 7.26609 15.1382 6.29097 16.2093 5.85059C17.614 5.2739 19.0792 5.29487 20.4737 5.86107C22.1006 6.52164 23 8.31461 23.677 9.99224C24.3541 9.0276 24.3137 7.66453 23.8286 6.57407C23.3436 5.48361 22.4947 4.62382 21.6257 3.83743C22.6261 2.64212 24.3137 2.11786 25.789 2.54775C27.032 2.91473 28.1637 3.90034 29.4471 3.70112C29.8816 3.63821 30.5688 3.08249 30.9932 2.97764C32.2361 2.67357 32.6908 3.65918 33.6811 4.25684C34.7119 4.86498 35.7931 4.82304 36.9653 4.95935C37.3897 5.01177 39.1076 4.64479 39.4916 4.44557C40.5324 3.91083 38.855 3.43899 38.0365 3.09298C37.3897 2.82036 36.6824 2.74697 35.9851 2.66309C34.4693 2.45338 33.479 0.744298 32.0542 0.534594C31.1346 0.398287 30.2858 0.974973 29.3561 0.985458C28.0324 0.985458 26.7995 0.30392 25.496 0.0732455C23.6366 -0.251796 21.6459 0.440227 20.3524 1.86621C20.0695 2.18077 19.8068 2.52678 19.4531 2.74697C19.0287 3.0091 18.5032 3.05104 18.0182 3.12444C15.4717 3.51239 13.1475 4.26732 11.6317 7.22415C11.4296 7.6121 11.1568 7.97908 10.8435 8.28315C10.5707 8.55577 10.2271 8.7445 9.90375 8.95421C7.25621 10.6214 5.20486 13.2951 4.22466 16.3463C3.10299 19.8169 3.01204 24.7764 5.91222 27.3243C6.08401 27.4711 6.12443 27.6074 6.0638 27.8486V27.8905C5.97285 28.1736 5.90212 28.4567 5.85159 28.7922C5.73033 29.4843 5.72022 30.1658 5.80106 30.8159C5.93243 31.8015 6.2558 32.7137 6.79137 33.6364C6.57916 35.5762 7.6402 36.8658 8.37788 37.7885C8.6204 38.0926 8.95387 38.3547 9.13576 38.6903C9.65113 39.6654 10.1867 40.5042 11.6317 41.1333C11.8641 41.2487 12.4098 41.4793 12.6725 41.5737C12.5614 42.035 12.4502 42.3496 12.9151 42.7376C14.067 43.7127 15.2089 44.7717 16.4519 45.6315C17.0279 46.0299 17.4826 45.9775 18.0384 45.4637C18.5335 45.0128 18.9883 44.5095 19.4228 43.9853C19.6451 43.7232 19.8573 43.4505 20.0796 43.1779C20.1099 43.1465 20.4636 42.6012 20.4838 42.6012C20.7668 42.6222 21.171 42.9263 21.4135 43.0626C22.1815 43.5869 23.0505 43.8804 23.8791 44.2894C24.1823 44.4362 24.4753 44.6354 24.7482 44.8556C24.9705 45.0443 25.5364 45.4742 25.5869 45.7887C25.7688 47.0365 25.9608 48.2842 26.1932 49.532C26.4155 50.7378 26.8703 51.8597 27.1229 53.0655C27.2947 53.9253 27.5271 55.3198 27.0421 56.1062C26.6176 56.8087 23.9903 58.4129 23.1516 59.3356C22.6362 59.6711 21.848 61.3802 22.2522 64.2008C22.4543 65.6267 22.7373 66.7172 22.9495 67.4092C22.1107 67.9125 21.6257 68.5311 21.5145 69.1812C21.4842 69.3595 21.4438 69.7684 21.3832 70.4709C21.2417 72.0017 20.8678 76.07 20.4131 76.9508C19.7562 78.1985 19.1095 79.7188 18.9377 80.1383C18.8367 80.0963 18.7255 80.0649 18.6144 80.0544C18.5638 80.0544 13.2182 79.614 10.9243 83.483C9.53997 85.8212 8.68103 86.8068 8.35767 87.1424L6.2659 88.086C6.12443 88.1385 3.10299 89.4177 1.79943 92.8044C1.62764 93.2448 1.06175 93.6327 0.799013 94.0311C0.374597 94.6603 0.000705833 95.4781 0.0310212 96.2645C0.0512315 96.7678 0.536279 97.3445 1.30427 97.9946C2.85036 99.3052 4.21456 100.763 5.92233 100.763C6.89242 100.763 7.87262 100.731 8.84271 100.689C9.30755 100.668 9.69155 100.542 10.0351 100.207C10.2877 99.9553 10.4797 99.6512 10.6717 99.3471C10.7323 99.2633 10.7829 99.1689 10.8031 99.064C10.894 98.4978 9.67134 97.4808 9.33787 97.1138C9.2065 96.967 8.04441 95.9499 8.06462 95.8241C8.29704 94.5554 8.70124 94.6078 9.82291 94.0626C10.601 93.6851 11.3791 93.2972 12.1572 92.9197C13.9559 92.039 15.795 91.2211 17.614 90.3718C19.0085 89.7217 19.8977 88.3901 20.8981 87.2367C21.4236 86.6286 22.2926 86.377 22.9899 86.0624C23.869 85.664 24.3642 85.1607 25.0614 84.4582C26.6176 82.8854 28.194 81.3336 29.922 79.96C31.1043 79.0163 31.6702 77.821 32.3978 76.5104C32.418 76.4789 32.4382 76.437 32.4483 76.395L33.186 74.6335C36.5005 76.8669 40.5324 76.0385 44.1501 75.2626C44.2107 75.2522 44.2713 75.2312 44.3219 75.2102L48.1921 73.606C47.3837 77.5589 47.7374 83.829 48.8894 85.7898C49.7685 87.2892 49.5866 91.1372 49.3643 92.9617C48.7277 94.7441 47.4342 99.1584 49.1622 100.951C49.7382 101.549 50.486 101.989 51.3045 102.042C52.3049 102.105 53.2952 101.738 54.2754 101.58C57.216 101.13 59.0147 101.706 60.8337 101.906C61.6825 102 62.5515 101.853 63.3903 101.654C63.8753 101.539 64.5625 101.329 64.7444 100.784C65.2496 99.2108 61.2581 97.7534 60.4598 97.3864C59.8029 97.0823 58.4489 96.275 57.5192 95.52C56.1752 94.4191 55.963 93.8529 55.6699 93.0665C55.3769 92.2801 54.9626 91.5147 54.8009 90.7073C54.6796 90.0992 54.6897 89.3338 54.8009 88.7361C54.9626 87.8973 55.1849 86.8068 55.4476 85.297C55.8821 82.8434 56.1651 80.3584 56.1853 77.863C56.1853 76.6152 55.8923 75.3151 56.3369 74.1093C56.6198 73.3648 57.0948 72.9769 57.4282 72.2953C58.1962 70.7435 57.9335 68.4892 57.3171 66.9374C56.6198 65.2178 55.0939 65.1654 53.4872 64.8823C52.1938 64.6621 50.9003 64.0644 49.5967 63.7813C48.6368 63.5716 47.7172 63.6555 46.7471 63.7184C45.3223 63.8023 43.8873 63.8967 42.4625 63.9806C41.0276 63.8128 39.5623 63.5507 39.2289 63.4039C39.1379 63.2885 38.7842 62.7014 38.5215 62.0932C38.8146 61.4536 39.1783 60.7721 39.5017 60.2373C40.5931 59.7236 41.6844 59.1049 42.6141 58.3081V58.2661ZM54.8716 34.297C55.6598 33.9929 56.4986 34.1187 57.4282 34.6744C60.7023 36.6247 61.5916 39.0363 61.7229 39.8751C60.4901 39.6339 59.4088 39.5291 58.1558 39.5081C56.9735 39.4871 56.1954 38.7741 55.3567 37.9878C55.1445 37.7885 54.5988 37.5788 54.3057 37.6103L53.2548 37.5264L52.0523 37.495L50.7487 37.3062C51.1732 36.4255 53.4872 34.8422 54.8716 34.3075V34.297ZM26.2134 43.2199C26.1124 43.1674 26.0214 43.1045 25.9305 43.0416C25.3747 42.6642 24.8492 42.2867 24.2227 42.035L24.1217 41.9931C23.1314 41.6051 22.3027 40.8922 21.2518 40.63C20.1301 40.3574 18.9074 40.3784 17.7655 40.2316C16.5327 40.0743 15.31 39.8856 14.0974 39.6234C13.1576 39.4242 12.0662 39.2879 11.4094 38.5225C10.9243 37.9458 10.8637 37.5683 10.4393 36.9497C9.9846 36.2996 9.28734 36.0899 9.03471 35.314C8.83261 34.7164 8.6204 33.1331 8.59008 32.5145C8.88313 32.7452 9.13576 33.0283 9.4086 33.2799C9.6006 33.4582 10.0452 33.6783 10.1766 33.8985C10.3787 34.255 10.5909 34.622 10.8031 34.9785C11.0961 35.4713 11.5913 34.2131 11.8237 34.5906C12.3795 35.4503 12.4704 36.9602 12.7231 37.1594C12.8948 37.2957 13.2081 37.6417 13.4809 37.7676C14.5218 38.2604 15.9163 38.491 17.0481 38.3233C18.4123 38.1136 19.6148 37.5474 21.0295 37.7781C21.171 37.799 21.3124 37.8305 21.4539 37.8724C22.3027 38.1031 23.1112 38.4386 23.9196 38.7846C24.536 39.0468 25.4454 39.6759 26.1326 39.3823C26.9612 39.0153 27.7696 38.6588 28.6185 38.3338C29.6492 39.0468 30.8921 39.8332 32.3068 40.284C34.4896 40.9865 36.4095 40.9446 38.1779 40.1687C38.8954 39.8541 39.5522 39.3928 40.1484 38.8056C41.0579 39.3508 41.6137 40.3364 41.8764 41.364C41.9977 41.8673 42.0583 42.3811 42.0482 42.8948C42.0482 43.5659 41.7046 44.0063 41.3813 44.5829C41.3307 44.6668 41.2802 44.7612 41.2802 44.8556C41.2499 45.4847 42.4524 45.0233 42.6444 44.8241C42.8566 44.6039 43.3316 44.1321 43.6145 43.4296C43.7762 43.0311 43.8671 42.6432 43.8974 42.2552C44.4229 42.2867 46.8785 41.7624 47.0705 40.976C47.1513 40.63 46.1408 40.8607 46.1408 40.8607C46.1408 40.8607 45.3021 40.976 43.5438 40.4727C43.3012 39.8227 42.7758 38.4176 42.6242 38.3967C43.1699 38.4806 43.6751 38.7322 44.2208 38.8371C44.7362 38.9419 45.2414 39.0048 45.7164 39.0468L46.7572 38.6483C46.8886 38.6693 53.8611 39.5081 53.7904 39.4347C53.7904 39.4347 55.5285 40.9865 56.1348 41.3011C56.9533 41.7205 60.197 41.6681 60.5103 41.6681C60.6114 41.6681 60.8438 41.6576 60.9549 41.6681C60.7831 41.8883 60.1566 42.9787 59.9646 43.2828C57.9537 42.7166 57.8425 42.3391 57.6101 42.5698C57.307 42.8739 57.1857 43.3142 57.2868 43.7441C57.408 44.2474 57.8628 44.8241 58.6308 45.4427C58.5196 45.6629 58.4084 45.8936 58.2973 46.1348C58.2973 46.1348 57.307 46.0509 57.1756 46.0509C56.7714 46.0509 55.4577 49.2279 54.5584 48.6512C54.3462 48.3471 53.6792 46.1557 52.8203 45.5686C51.8906 44.929 50.5264 44.541 49.617 45.4427C49.233 45.8307 48.7075 46.292 48.5054 46.8687C48.3841 47.2042 48.3033 47.5398 48.273 47.8543C48.1719 48.8819 48.0305 49.5005 47.8081 50.5385C47.3736 52.6041 47.0907 52.4888 45.4031 52.8348C45.0292 52.9082 44.2208 52.709 44.2814 52.3105L44.6149 50.1296C44.6149 50.1296 41.6743 51.7863 41.644 51.8072C40.5425 52.6146 38.9257 52.1742 37.804 51.6605C36.3691 50.9894 35.9043 49.9094 35.5405 48.3681C35.3384 47.5188 35.298 46.5122 34.8938 45.7363C34.5098 45.0024 33.6407 44.2579 32.9334 43.87C32.2967 43.5239 31.2963 43.6183 30.5789 43.5764C29.245 43.503 27.4564 43.8175 26.2134 43.2094V43.2199ZM42.3413 66.1091C42.3918 66.1091 42.4524 66.1091 42.5029 66.1091L48.5559 65.7421C49.2431 65.9413 52.4161 66.864 53.1437 66.9898C53.6893 67.0842 54.7706 67.0947 55.1546 67.5351C55.6699 68.1222 56.1247 70.062 55.579 70.7226C55.0737 71.3517 54.6796 71.4775 54.4775 72.3582C54.3361 72.9978 54.3361 73.6689 54.1946 74.3085C53.8106 76.0071 54.1239 77.8001 54.0228 79.5301C53.9218 81.3126 53.6893 83.0846 53.3862 84.8356C53.1234 86.314 53.1639 87.6247 53.0022 88.4216C52.8304 89.2814 53.0426 90.917 53.174 91.7978C53.3255 92.8673 53.3357 92.7834 53.6994 93.769C54.0531 94.7232 54.4169 95.6983 56.2156 97.1662C57.3171 98.0679 61.7128 99.1794 61.5006 99.798C61.5006 100.333 59.0653 99.5568 58.7924 99.5254C57.9436 99.4101 57.0948 99.3052 56.2358 99.3157C55.387 99.3262 54.5887 99.5464 53.75 99.6617C53.1234 99.7456 52.3858 99.9972 51.7694 99.9658C50.4961 99.8819 50.3546 98.6761 50.4456 97.6381C50.5567 96.233 50.9205 94.849 51.3854 93.5279C51.4157 93.4545 51.4359 93.3706 51.446 93.2867C51.5268 92.6681 52.1837 87.1319 50.6881 84.5945C49.5664 82.6966 49.6372 73.564 50.7791 72.3792C51.1327 72.0122 51.1833 71.4355 50.9104 71.0056C50.6376 70.5758 50.102 70.3975 49.6372 70.5967C45.201 72.4631 38.5619 76.2063 34.0247 72.547C33.7519 72.2953 35.6617 69.9571 35.8234 69.716C36.6622 68.4263 37.4504 66.9164 37.5211 65.3227C37.5211 65.1339 37.5615 64.9347 37.612 64.6831C37.7636 64.8718 37.9051 65.0186 38.0365 65.1339C38.5215 65.5114 39.9362 65.826 42.3514 66.1091H42.3413ZM37.7232 57.616C37.3089 57.637 36.6925 57.3749 36.3287 57.2805C36.0457 57.2071 35.8639 56.8506 35.7123 57.3329C35.5708 57.7838 36.1266 58.2871 36.359 58.6121C36.4702 58.7694 37.6019 59.2203 37.703 59.063C37.0866 60.101 35.5304 62.9006 35.4192 65.2283C35.3384 66.9793 33.479 69.4434 32.7616 70.2507C32.6807 70.3346 32.6201 70.4394 32.5696 70.5548C32.5696 70.5548 30.5485 75.357 30.5182 75.4514C29.9119 76.9088 28.8913 78.0307 27.6989 78.9954C25.8496 80.5052 24.2328 82.2143 22.5352 83.9024C22.1714 84.2694 21.4337 84.4582 20.979 84.6679C19.4733 85.3494 18.675 86.5971 17.5432 87.761C16.27 89.0717 14.2793 89.8476 12.6321 90.6025C10.5302 91.5671 9.13576 92.4479 7.15515 93.098C6.4579 93.4335 6.18506 93.9368 6.0638 94.6917C5.93243 95.5096 6.14464 95.9499 6.58927 96.6C6.90253 97.0509 7.20568 97.5227 7.59978 97.8897C7.76146 98.0365 8.91345 98.6237 8.43851 98.8439C8.16567 98.9697 7.61999 98.9592 7.50883 98.9592C6.82168 98.9592 6.12443 98.8334 5.46759 98.6237C4.27519 98.2357 3.37583 97.8163 2.63815 96.7363C2.47647 96.4952 2.12279 96.0024 2.18342 95.7088C2.23395 95.3942 2.50679 95.0482 2.68868 94.807C2.86047 94.5764 3.09288 94.2304 3.30509 93.9368C4.43687 92.4059 5.12402 90.6549 6.92274 89.8895L9.17618 89.1555C9.28734 89.1241 9.3985 89.0612 9.48944 88.9878C9.61071 88.8934 10.126 88.128 12.1269 84.7622C12.8241 83.5879 14.0974 82.9273 15.3403 82.5708C16.462 82.2458 18.3112 81.7844 19.4127 82.3611C19.6956 82.5184 20.9082 83.4306 20.9082 82.445C20.9082 82.0885 20.7567 81.1868 20.9082 80.8722C21.0901 80.4423 21.6661 79.1002 22.2421 77.9993C22.8585 76.8249 23.1819 73.7423 23.4648 70.6806L23.485 70.4814C23.5255 69.9886 23.485 69.716 23.8488 69.3909C24.1823 69.0973 24.6775 69.0659 25.0008 68.7408C25.6172 68.1222 25.112 67.3253 24.8796 66.6648C24.6067 65.8994 24.4046 65.1025 24.3137 64.2951C24.1318 62.7538 24.344 61.0028 25.6475 60.0276C26.6985 59.2413 28.1233 58.4444 28.8206 57.27C29.7098 55.7811 29.4269 53.6631 29.0227 52.0484C28.7498 50.9684 28.3658 49.9094 28.1738 48.819C27.9818 47.6971 27.8202 46.5646 27.6484 45.4427C28.0627 45.4952 28.5174 45.5581 28.9822 45.6105C29.2753 47.5817 30.0029 49.4586 30.9426 51.1886C31.4984 52.2057 32.034 53.3171 32.8929 54.114C33.2769 54.4705 33.863 54.9004 34.3986 54.9214C34.9039 54.9423 34.7119 54.5544 34.4592 54.3237C33.8024 53.726 33.378 53.1179 32.9637 52.3105C31.9633 50.3183 31.6096 48.0221 31.1549 45.8412C31.549 45.8726 31.8218 45.8831 32.0037 45.8726C32.3473 45.9146 32.8727 46.0718 33.0849 46.8582C33.2769 47.4769 33.4689 48.085 33.6609 48.7036C33.9035 49.469 34.0853 50.2764 34.4693 50.9789C35.0757 52.1113 35.8032 53.055 36.9451 53.6526C37.8344 54.114 38.8348 54.3237 39.8251 54.3237C40.5627 54.3237 41.7046 53.8938 42.3918 53.6212C42.3514 53.6317 42.5332 54.6907 42.5636 54.785C42.6646 55.2254 42.4524 55.5714 42.1897 55.9279C41.1286 57.291 39.3198 57.5741 37.7333 57.6475L37.7232 57.616Z" fill="#28BABC"/>
<path d="M39.6425 25.6989C39.602 25.5206 39.5515 25.3319 39.4505 25.1851C39.3898 25.1012 39.2888 25.0383 39.1877 25.0383C39.0665 25.0383 38.9654 25.1222 38.8846 25.2061C38.2783 25.8247 37.672 27.0305 37.6012 27.9322C37.5507 28.6348 37.4395 29.3687 37.1667 30.0188C37.1162 30.1446 37.0555 30.2704 36.9848 30.3963C36.712 30.9205 36.3785 31.4238 36.1158 31.9586C35.8834 32.4409 35.6813 32.9547 35.661 33.4894C35.6408 33.9612 35.9238 35.2719 36.6412 34.9259C36.904 34.8 36.904 34.3806 36.9444 34.129C37.005 33.783 37.1061 33.437 37.2374 33.1119C37.5002 32.4828 37.9145 31.8852 38.5107 31.5601C39.0564 31.2561 39.693 31.2141 40.2993 31.3294C41.421 31.5392 42.482 31.9166 43.2096 32.8603C43.8563 33.6886 43.6037 31.3924 42.9671 30.8681C41.3806 29.5679 38.8341 30.2495 39.4404 27.9952C39.6425 27.2297 39.8143 26.4643 39.6425 25.7199V25.6989Z" fill="#28BABC"/>
<path d="M11.9746 23.2662C12.6415 22.5637 13.0963 21.6724 13.642 20.8755C14.3089 19.8899 16.1581 20.215 17.108 19.5754C17.2798 19.46 17.4516 19.3132 17.5527 19.1245C17.7042 18.8309 17.6436 18.4535 17.3404 18.2962C17.1889 18.2228 17.0171 18.2123 16.8453 18.2018C15.8752 18.1704 14.8748 18.2962 13.935 18.0131C13.2276 17.8034 12.6314 17.3525 12.1565 16.7653C11.8129 16.3354 11.3279 15.9056 11.1359 15.3708C11.0045 14.9933 10.6306 13.5044 10.0243 14.2699C9.50896 14.9199 9.3877 16.0628 9.68075 16.8282C9.70096 16.8702 9.71106 16.9121 9.73127 16.9541C10.1254 17.8034 10.954 18.0865 11.6209 18.6632C11.7523 18.7785 11.8736 18.8938 11.9342 19.0616C12.1363 19.5859 11.6411 20.4247 11.3784 20.8441C11.0449 21.3893 10.6003 22.0604 10.1961 22.5217C9.99401 22.7419 9.72117 22.8677 9.47865 23.0355C9.02391 23.35 8.91276 24.105 9.53928 24.2937C9.56959 24.2937 9.95359 24.3671 9.83233 24.3356C10.8934 24.409 11.1662 24.0735 11.9443 23.2557L11.9746 23.2662Z" fill="#28BABC"/>
<path d="M32.3263 20.8549C32.7911 20.6452 33.2458 20.4145 33.6702 20.1209C34.4281 19.6072 35.2365 18.8208 35.1052 17.7932C35.0142 17.1326 33.933 18.1497 33.2559 18.3489C32.397 18.6111 31.5583 18.9571 30.669 19.0514C30.285 19.0934 29.8101 19.1458 29.3351 19.1563C28.6581 19.1773 27.9507 19.1248 27.4556 18.8732C26.9301 18.6215 25.6771 17.0173 25.4244 18.1916C25.2122 19.1668 25.4244 20.0266 26.2733 20.6032C26.9806 21.0751 27.9507 21.3372 28.7793 21.4525C28.9815 21.4735 29.032 21.5364 29.0421 21.7461C29.0825 22.7527 29.2341 24.4094 30.1638 24.9965C30.9621 25.5103 32.7406 25.9822 33.6096 25.4684C33.8926 25.3006 32.8416 24.8602 32.7709 24.8288C32.3364 24.6505 31.821 24.4723 31.5583 24.0529C31.1338 23.3713 30.7701 22.3018 31.2854 21.6203C31.6088 21.2009 31.9322 21.0122 32.3263 20.8339V20.8549Z" fill="#28BABC"/>
<path d="M50.6268 22.6484C49.9801 22.1451 48.4138 22.4492 48.0904 23.8857C47.4538 26.7271 44.4425 24.2946 43.9372 24.1058C42.5831 23.6026 42.6943 24.8818 43.2703 25.6367C43.725 26.2343 44.4223 26.832 45.0892 27.157C45.9683 27.5765 47.2012 27.2724 47.7165 28.279C47.9389 28.7193 48.05 29.2226 48.3228 29.6315C48.9696 30.6067 51.0613 30.6906 50.1923 29.1702C50.1014 29.0129 50.0003 28.8661 49.8993 28.7193C49.5961 28.279 49.2727 27.8386 49.202 27.2933C49.0908 26.4545 49.6365 25.6891 50.1014 24.9971C50.5056 24.3889 51.1018 23.3719 50.6167 22.6589L50.6268 22.6484Z" fill="#28BABC"/>
<path d="M26.6978 13.2839C26.1723 12.9798 25.5256 13.0637 24.9496 13.221C21.625 14.1437 19.5434 17.3417 19.6848 20.8542C19.7353 22.0705 20.3214 21.8922 20.756 20.7808C20.9379 20.3195 21.9484 20.2146 21.9888 19.7218C22.009 19.4177 22.0696 19.1137 22.1606 18.8096C22.4233 17.9184 22.8174 16.4609 23.5147 15.8737C24.4646 15.0874 25.0203 15.0244 25.9904 14.3848C26.6877 13.934 27.4557 13.7033 26.7079 13.2734L26.6978 13.2839Z" fill="#28BABC"/>
<path d="M33.4885 31.2566C33.6703 31.0783 32.963 31.0364 32.9024 31.0259C32.4476 30.984 32.0333 30.9525 31.5988 30.8162C30.6186 30.5226 29.6485 30.1976 28.83 29.5475C27.971 28.8764 27.2233 28.0062 26.7079 27.0205C26.4553 26.5277 26.4149 25.5212 26.1218 25.1437C26.041 25.0388 25.95 24.9654 25.849 24.9235C25.2932 24.6719 24.6363 25.4897 24.6768 26.1922C24.7172 26.9262 25.1416 28.2893 25.657 29.2539C26.6372 31.0888 31.4977 33.1963 33.4885 31.2461V31.2566Z" fill="#28BABC"/>
<path d="M36.4189 7.62206C35.5903 6.951 34.7111 6.4582 33.6501 6.33238C32.3364 6.16461 30.9015 6.54208 29.9112 7.47526L29.8101 7.56963C29.4868 7.86322 29.1634 8.17777 29.0422 8.67058C28.8502 9.436 29.3352 10.0966 30.1032 10.0756C31.0127 10.0441 30.8308 8.61815 32.7811 8.11486C34.1655 7.75836 35.2871 8.53427 36.6008 8.88028C37.2981 9.06902 37.9246 9.54085 37.5507 8.723C37.3385 8.27214 36.7928 7.92613 36.4189 7.62206Z" fill="#28BABC"/>
<path d="M17.4515 29.9031C17.6031 29.9975 17.785 30.0499 17.977 30.0499C18.0882 30.0499 18.1993 30.0394 18.3105 30.008C18.6338 29.9136 18.8966 29.7144 19.0279 29.4523C19.1593 29.2006 19.1795 28.8336 19.0886 28.4876C18.9976 28.1626 18.8056 27.9004 18.5732 27.7746C18.0376 27.481 17.3505 27.7327 17.0372 28.3199C16.8957 28.561 16.8553 28.8546 16.916 29.1482C16.9867 29.4627 17.1888 29.7563 17.4414 29.9136L17.4515 29.9031Z" fill="#28BABC"/>
<path d="M41.0573 7.02418C41.1887 7.11855 41.3504 7.17097 41.5323 7.17097C41.6131 7.17097 41.6939 7.16049 41.7849 7.13952C42.1386 7.05564 42.4619 6.81448 42.6135 6.52089C42.7449 6.25876 42.7752 5.95469 42.6842 5.66111C42.5933 5.34655 42.3811 5.08442 42.1082 4.93763C41.8455 4.79083 41.5221 4.75938 41.2291 4.86423C40.936 4.9586 40.7036 5.1683 40.5723 5.4514C40.3095 6.00712 40.5318 6.7306 41.0573 7.03467V7.02418Z" fill="#28BABC"/>
</g>
</svg>
