<svg width="124" height="42" viewBox="0 0 124 42" fill="none" xmlns="http://www.w3.org/2000/svg">
<mask id="mask0_2001_283" style="mask-type:luminance" maskUnits="userSpaceOnUse" x="37" y="9" width="87" height="27">
<path d="M123.587 9.28223H37.5504V35.8376H123.587V9.28223Z" fill="white"/>
</mask>
<g mask="url(#mask0_2001_283)">
<path d="M44.6555 18.9019V22.7751C44.6555 24.4923 44.0564 25.9015 42.9931 25.9858C41.4996 26.104 40.7528 26.163 39.2634 26.2812C37.9766 26.3824 37.5547 25.1715 37.5547 23.3911V12.7293C37.5504 10.2653 38.12 9.28223 39.1411 9.28223H42.9045C44.3137 9.28223 44.4192 10.6197 44.4192 11.4382V15.6236C43.5459 15.6489 43.1071 15.6616 42.2295 15.6911V13.9275C42.2295 13.0204 42.1113 12.6575 41.7358 12.6618C41.2127 12.6702 40.9553 12.6744 40.4321 12.6829C40.0566 12.6871 39.9807 13.4507 39.9807 14.0288V20.6655C39.9807 21.6612 40.1748 22.2814 40.5798 22.2561C40.989 22.2308 41.1916 22.2181 41.5966 22.1928C42.0607 22.1633 42.2253 21.4798 42.2253 21.1929V19.0116C43.1957 18.9652 43.6809 18.9441 44.6513 18.9019H44.6555Z" fill="white"/>
<path d="M53.9587 12.4677V21.9312C53.9587 24.2096 53.3892 25.1631 52.3681 25.2433C50.5708 25.3867 49.6721 25.4542 47.8705 25.5977C46.8495 25.6778 46.2799 24.7834 46.2799 22.4122V12.59C46.2799 10.2231 46.8495 9.28223 47.8705 9.28223H52.3681C53.3849 9.28223 53.9587 10.1893 53.9587 12.4677ZM51.5454 20.8174V13.7714C51.5454 13.2271 51.5749 12.5057 51.0813 12.5141C50.3134 12.5268 49.9294 12.531 49.1616 12.5436C48.6679 12.5521 48.7101 13.282 48.7101 13.8347V20.9777C48.7101 21.5304 48.6637 22.2646 49.1616 22.2308C49.9294 22.1844 50.3134 22.1591 51.0813 22.1084C51.5749 22.0789 51.5454 21.3617 51.5454 20.8132V20.8174Z" fill="white"/>
<path d="M61.1819 9.28223H63.6838V24.353C62.6839 24.4332 62.1818 24.4712 61.1819 24.5513C60.0258 21.56 59.4478 20.0411 58.2875 16.9611V24.7792C57.2876 24.8593 56.7855 24.8973 55.7856 24.9775V9.28223H58.2875C59.4436 12.4002 60.0216 13.9359 61.1819 16.9653V9.28223Z" fill="white"/>
<path d="M72.2867 9.28223V12.6238C71.3163 12.6407 70.8311 12.6491 69.8565 12.6702V23.8678C68.8481 23.948 68.346 23.986 67.3377 24.0661V12.7124C66.3672 12.7293 65.882 12.7377 64.9116 12.7588V9.28223H72.2867Z" fill="white"/>
<path d="M81.611 22.9354C80.4128 23.0282 79.8137 23.0788 78.6154 23.1717C78.0458 21.2646 77.7631 20.3026 77.1936 18.3618C76.721 18.3872 76.4847 18.3998 76.008 18.4209V23.3742C75.008 23.4544 74.506 23.4923 73.506 23.5725V9.28223H79.3369C80.3579 9.28223 80.9275 10.067 80.9275 12.0416V15.4169C80.9275 16.902 80.6111 17.7247 80.012 18.0538C80.6533 20.0284 80.9739 21.003 81.6152 22.9396L81.611 22.9354ZM76.0038 12.1175V15.303C76.8138 15.2776 77.2189 15.2608 78.029 15.2354C78.5226 15.2186 78.4931 14.6152 78.4931 14.1216V13.1765C78.4931 12.704 78.5226 12.0795 78.029 12.088C77.2189 12.1006 76.8138 12.1091 76.0038 12.1217V12.1175Z" fill="white"/>
<path d="M91.0366 22.1925C89.9692 22.2769 89.4376 22.3191 88.3701 22.4035C88.1001 20.9943 87.9651 20.2897 87.6951 18.8678C86.7584 18.9227 86.2943 18.948 85.3576 19.0028C85.075 20.4753 84.9357 21.2137 84.653 22.6988C83.7122 22.7748 83.2396 22.8085 82.2988 22.8845C83.2481 18.3489 84.2058 13.8175 85.1762 9.28613H88.1592C89.1 13.5939 90.0578 17.8974 91.0366 22.1967V22.1925ZM85.9272 16.003C86.4124 15.9819 86.6571 15.9735 87.1423 15.9566C86.9103 14.6824 86.7922 14.0411 86.5559 12.7543C86.3027 14.0496 86.1762 14.6993 85.9272 16.003Z" fill="white"/>
<path d="M100.344 21.4587C99.1458 21.5515 98.5467 21.6021 97.3485 21.695C96.7789 19.9946 96.4962 19.1382 95.9266 17.4083C95.4541 17.4336 95.2178 17.4463 94.741 17.4674V21.9017C93.7411 21.9819 93.239 22.0198 92.2391 22.1V9.28223H98.0699C99.091 9.28223 99.6606 9.98261 99.6606 11.742V14.7502C99.6606 16.0751 99.3441 16.8092 98.745 17.1045C99.3863 18.8639 99.707 19.7331 100.348 21.4545L100.344 21.4587ZM94.7368 11.8222V14.6743C95.5469 14.649 95.9519 14.6321 96.762 14.6068C97.2556 14.5899 97.2261 14.0541 97.2261 13.6111V12.763C97.2261 12.3411 97.2556 11.78 96.762 11.7884C95.9519 11.8011 95.5469 11.8095 94.7368 11.8222Z" fill="white"/>
<path d="M101.724 21.3661V9.29932C102.766 9.29932 103.289 9.29932 104.331 9.29932V21.1593C103.289 21.2437 102.766 21.2817 101.724 21.3661Z" fill="white"/>
<path d="M114.25 20.3617C113.183 20.4461 112.651 20.4883 111.584 20.5727C111.314 19.366 111.179 18.7584 110.909 17.5349L108.571 17.6699C108.289 18.9441 108.149 19.5812 107.867 20.8638C106.926 20.9397 106.453 20.9735 105.513 21.0494C106.453 17.1214 107.411 13.1976 108.39 9.28223H111.373C112.525 13.8052 113.099 16.0202 114.25 20.3617ZM109.141 15.0793C109.626 15.0582 109.871 15.0498 110.356 15.0329C110.124 13.9359 110.006 13.3832 109.77 12.2778C109.517 13.3959 109.39 13.957 109.141 15.0793Z" fill="white"/>
<path d="M120.845 9.28223H123.347V19.6402C122.347 19.7204 121.845 19.7584 120.845 19.8385C119.689 17.8007 119.111 16.7543 117.955 14.6237V20.0664C116.955 20.1465 116.453 20.1845 115.453 20.2647V9.28223H117.955C119.111 11.4509 119.689 12.5141 120.845 14.5941V9.28223Z" fill="white"/>
<path d="M63.7893 25.9141V28.4835C62.7388 28.551 62.2114 28.589 61.1566 28.6565V35.8206C60.0638 35.8206 59.5195 35.8206 58.4268 35.8206V28.8337C57.3762 28.9012 56.8488 28.9392 55.7983 29.0067C55.7983 28.184 55.7856 27.3739 55.7856 26.5512C58.9795 26.2769 60.5912 26.1841 63.7893 25.9141Z" fill="white"/>
<path d="M73.0462 25.1929V35.8209C71.9534 35.8209 71.4091 35.8209 70.3164 35.8209V31.838C69.2574 31.8718 68.73 31.8929 67.671 31.9266V35.8209C66.5867 35.8209 66.0424 35.8209 64.9581 35.8209V25.83C66.0424 25.7371 66.5867 25.6907 67.671 25.5979V29.72C68.73 29.6652 69.2574 29.6356 70.3164 29.5808V25.4249C71.4091 25.3321 71.9534 25.2857 73.0462 25.1929Z" fill="white"/>
<path d="M75.0798 35.8375V25.0154C76.2105 24.9184 76.7759 24.8719 77.9066 24.7749V35.8375H75.0798Z" fill="white"/>
<path d="M85.7795 24.1969C86.8639 24.1041 87.4081 24.0577 88.4924 23.9648V35.8207C87.4081 35.8207 86.8639 35.8207 85.7795 35.8207C84.5264 33.5086 83.8978 32.382 82.6447 30.1797V35.8207C81.5604 35.8207 81.0161 35.8207 79.9318 35.8207V24.6357C81.0161 24.5429 81.5604 24.4965 82.6447 24.4036C83.8978 26.547 84.5264 27.8802 85.7795 30.1332V24.1969Z" fill="white"/>
<path d="M99.1458 35.8166C97.7999 35.8166 97.129 35.8166 95.7831 35.8166C95.0996 33.9728 94.7621 33.0615 94.0786 31.2642C93.7326 31.2768 93.5639 31.281 93.2179 31.2937V35.8377H90.5387V23.8089C91.6104 23.7161 92.1462 23.6697 93.2179 23.5811V28.5259C93.471 28.5133 93.5976 28.5048 93.8508 28.4922C94.7072 26.5218 95.2726 25.3869 96.1333 23.3617C97.3611 23.2562 97.9771 23.2056 99.2049 23.1001C98.1374 25.4966 97.4708 26.8129 96.4033 29.125C97.5003 31.7536 98.0488 33.091 99.15 35.8166H99.1458Z" fill="white"/>
<path d="M100.496 35.8374V23.0281C101.627 22.9311 102.192 22.8846 103.323 22.7876V35.8374H100.496Z" fill="white"/>
<path d="M111.2 22.1549C112.284 22.0621 112.828 22.0157 113.913 21.9229V35.8123C112.828 35.8123 112.284 35.8123 111.2 35.8123C109.947 33.0656 109.318 31.7155 108.065 29.0743V35.8123C106.981 35.8123 106.436 35.8123 105.352 35.8123V22.6106C106.436 22.5178 106.981 22.4713 108.065 22.3785C109.318 24.9564 109.947 26.3572 111.2 29.0448V22.1507V22.1549Z" fill="white"/>
<path d="M123.587 28.1799V33.0868C123.587 34.6099 122.938 35.8124 121.786 35.8124C120.17 35.8124 119.36 35.8124 117.744 35.8124C116.347 35.8124 115.892 34.7913 115.892 33.34V24.6148C115.892 22.598 116.508 21.7415 117.613 21.6445C118.478 21.5685 118.908 21.5348 119.773 21.4588C119.773 21.4588 120.161 21.4251 121.689 21.2943C123.216 21.1635 123.33 22.3322 123.33 23.0579V26.7539C122.381 26.8045 121.908 26.8298 120.959 26.8804V25.3573C120.959 24.5726 120.828 24.2688 120.423 24.2983C119.858 24.3363 119.575 24.3574 119.01 24.3954C118.605 24.4249 118.52 25.0662 118.52 25.5514V31.1291C118.52 31.9687 118.731 32.4919 119.17 32.4835C119.613 32.475 119.832 32.4708 120.275 32.4624C120.777 32.4539 120.959 31.8675 120.959 31.6228V31.5342C120.571 31.5426 120.372 31.551 119.984 31.5595V28.336C121.427 28.2728 122.149 28.239 123.587 28.1757V28.1799Z" fill="white"/>
</g>
<mask id="mask1_2001_283" style="mask-type:luminance" maskUnits="userSpaceOnUse" x="0" y="0" width="28" height="42">
<path d="M27.0448 0H0V41.0439H27.0448V0Z" fill="white"/>
</mask>
<g mask="url(#mask1_2001_283)">
<path d="M17.7923 23.4457C18.2649 23.0617 18.4168 22.5597 18.9864 22.2981C19.5391 22.0449 20.0412 21.8382 20.4167 21.3614C20.6276 21.0956 20.7078 20.8636 20.7668 20.3784C20.8133 20.0029 20.8723 19.2476 21.2056 19.0535C21.4461 18.9143 21.8132 18.9439 21.8934 19.2898C21.9735 19.6358 22.387 20.429 22.6866 20.467C23.1422 20.5218 23.3701 20.2096 23.4798 20.0746C23.7329 19.7581 24.0114 19.3869 24.0156 19.3911L24.6485 19.6231C24.8257 19.64 24.9227 19.3869 25.0029 19.2265C25.3868 18.4376 25.9775 17.252 26.1969 17.0326C26.3361 17.0241 26.1969 16.9819 26.3657 17.0579C26.5513 17.1423 26.7243 17.1465 26.8466 16.9777C26.969 16.8132 26.931 16.5938 26.796 16.4377L26.6399 16.2225C26.5935 15.7246 26.2264 14.2268 24.4248 13.1931C23.8257 12.8472 23.235 12.767 22.6739 12.9569C22.6739 12.9147 22.6781 12.8683 22.6781 12.8261C22.6781 12.7755 22.6992 12.7248 22.7456 12.6784C23.1422 12.2523 23.3954 11.7586 23.5051 11.2101C23.5937 10.7545 23.5852 10.2693 23.4207 9.83049C23.3363 9.59843 23.176 9.40857 23.0747 9.18496C22.9566 8.91915 23.003 8.70819 23.0072 8.42973C23.0241 7.81373 22.8005 7.31587 22.3279 6.91505C22.1803 6.7927 21.8512 6.6619 21.7457 6.52267C21.5896 6.30328 21.6444 5.9784 21.56 5.73369C21.4546 5.42569 21.2267 5.13879 20.9947 4.91518C20.674 4.60718 20.2563 4.42576 19.9483 4.10509C19.6108 3.7549 19.3956 3.32876 18.999 3.01655C18.8935 2.93638 18.5265 2.62838 18.3661 2.69167C18.1088 2.79293 18.4421 3.3372 18.5138 3.50597C18.6235 3.77599 18.6995 4.12618 18.9315 4.30762C18.6826 4.51014 18.4379 4.71266 18.1889 4.91518C18.2733 4.84767 17.4 4.53545 17.3282 4.5228C17.0076 4.47639 16.6152 4.40466 16.2945 4.53123C16.0836 4.6114 15.5351 5.316 15.9486 5.18098C16.2481 5.08394 16.5772 5.04175 16.881 5.13035C17.1848 5.22317 17.7206 5.4046 17.7712 5.71682C17.8345 6.1092 17.6658 6.52267 17.4379 6.83067C17.3704 6.91927 16.7418 7.56058 16.9105 7.61965C17.1046 7.68716 18.1257 7.0585 18.2438 6.88974C18.3619 6.72519 18.4083 6.51845 18.4674 6.32437C18.6488 5.72525 18.7754 4.76751 19.3956 4.85189C19.9568 4.92783 20.6192 5.87714 20.6867 6.43829C20.7162 6.67034 20.7247 6.92349 20.8639 7.11335C21.0495 7.3665 21.3955 7.42979 21.6529 7.60699C21.9398 7.80951 22.1043 8.17236 22.0621 8.52255C22.0326 8.76304 21.9145 9.00353 21.9693 9.23981C22.0157 9.42967 22.1634 9.57734 22.2773 9.73345C22.6444 10.2355 22.6908 10.957 22.387 11.5013C22.1676 11.8937 21.7794 12.2101 21.7246 12.6573C21.6951 12.9062 21.7583 13.2058 21.5727 13.3704C21.463 13.4674 21.3069 13.4801 21.1719 13.5433C20.9272 13.6615 20.8133 13.9399 20.6487 14.1551C20.2943 14.6192 19.4547 14.885 18.8724 14.8386C18.2902 14.7922 17.9569 14.4631 17.4506 14.172C17.265 14.0665 17.0498 13.9484 16.8473 14.0159C16.6363 14.0834 16.5308 14.3154 16.4127 14.5053C15.9106 15.3154 14.7967 15.5685 13.8728 15.3323C12.9488 15.096 12.1809 14.4716 11.4763 13.8302C10.7717 13.1889 10.084 12.5012 9.22325 12.0877C9.07558 12.016 8.9026 11.9527 8.75493 12.016C8.55663 12.1004 8.9912 12.3999 9.07136 12.594C9.15153 12.7923 9.46374 12.9316 9.63251 13.0624C10.1937 13.5011 10.4595 14.1171 11.0164 14.5559C10.7928 14.8302 10.046 14.6488 9.70002 14.5686C9.35404 14.4842 9.02917 14.3197 8.67898 14.2859C7.83515 14.21 6.9871 14.9188 6.1939 14.615C5.54415 14.3703 6.15171 13.3155 4.87331 13.0539C4.41342 12.9611 4.1645 12.4253 3.70883 12.3071C3.5907 12.2776 3.46412 12.2523 3.37974 12.1637C3.3038 12.0793 3.2827 11.9569 3.29536 11.843C3.35865 11.3916 3.91135 11.1722 4.36701 11.2144C4.82268 11.2566 5.00832 10.8768 5.46399 10.8853C5.76355 10.8937 6.37111 11.3283 6.38798 11.0329C6.40486 10.7207 6.04623 10.5393 5.74667 10.4676C5.21506 10.341 4.66657 10.2904 4.12231 10.3241C3.78056 10.3452 3.42193 10.3959 3.11393 10.244C2.67936 10.0288 2.51482 9.48873 2.4684 9.00775C2.33761 7.69138 2.72999 6.33281 3.54429 5.29068C3.7679 5.00378 4.02949 4.73375 4.35857 4.57764C4.68767 4.42154 5.0927 4.39622 5.40914 4.58186C5.97451 4.9194 5.98294 5.71682 5.9281 6.375C6.5019 5.88136 6.6116 4.94049 6.17281 4.32871C5.99982 4.09243 5.66651 3.79287 5.66651 3.48065C5.66651 2.92373 6.32048 2.53134 6.76771 2.35414C7.35417 2.12209 7.96594 2.13052 8.54819 2.35836C9.22747 2.62417 9.60298 3.34564 9.88566 4.0207C10.1683 3.63254 10.1515 3.08405 9.94895 2.64526C9.74643 2.20647 9.39202 1.8605 9.02917 1.54406C9.44687 1.06308 10.1515 0.852123 10.7675 1.02511C11.2864 1.17278 11.759 1.56938 12.2948 1.48921C12.4762 1.4639 12.7631 1.24028 12.9403 1.19809C13.4593 1.07574 13.6491 1.47234 14.0626 1.71283C14.493 1.95754 14.9444 1.94066 15.4338 1.99551C15.611 2.01661 16.3283 1.86894 16.4886 1.78877C16.9232 1.5736 16.2228 1.38374 15.8811 1.2445C15.611 1.13481 15.3157 1.10527 15.0246 1.07152C14.3917 0.987135 13.9782 0.299415 13.3833 0.215032C12.9994 0.160183 12.645 0.392237 12.2568 0.396456C11.7041 0.396456 11.1894 0.122211 10.6451 0.0293897C9.86878 -0.101404 9.03761 0.17706 8.49756 0.750863C8.37942 0.877437 8.26972 1.01667 8.12205 1.10527C7.94485 1.21075 7.72545 1.22763 7.52293 1.25716C6.45971 1.41327 5.4893 1.71705 4.85643 2.90685C4.77205 3.06296 4.65813 3.21063 4.52734 3.33298C4.41342 3.44268 4.26997 3.51863 4.13497 3.60301C3.02955 4.27387 2.17306 5.34975 1.76381 6.57752C1.29548 7.97406 1.25751 9.96972 2.4684 10.995C2.54013 11.054 2.55701 11.1089 2.53169 11.2059V11.2228C2.49372 11.3367 2.46419 11.4506 2.44309 11.5857C2.39246 11.8641 2.38824 12.1384 2.42199 12.3999C2.47684 12.7965 2.61186 13.1636 2.83547 13.5349C2.74687 14.3154 3.18988 14.8344 3.49788 15.2057C3.59914 15.328 3.73837 15.4335 3.81431 15.5685C4.02949 15.9609 4.25309 16.2984 4.85643 16.5516C4.95347 16.598 5.18131 16.6908 5.291 16.7288C5.24459 16.9144 5.19818 17.041 5.39226 17.1971C5.87325 17.5895 6.35001 18.0156 6.86897 18.3616C7.10946 18.5219 7.29932 18.5008 7.53137 18.2941C7.73811 18.1127 7.92797 17.9102 8.1094 17.6992C8.20222 17.5937 8.29082 17.484 8.38364 17.3743C8.3963 17.3617 8.54397 17.1423 8.55241 17.1423C8.67054 17.1507 8.83931 17.2731 8.94057 17.3279C9.26122 17.5389 9.62407 17.657 9.97004 17.8216C10.0966 17.8806 10.219 17.9608 10.3329 18.0494C10.4257 18.1253 10.662 18.2983 10.6831 18.4249C10.759 18.927 10.8392 19.4291 10.9362 19.9311C11.029 20.4163 11.2189 20.8678 11.3244 21.353C11.3961 21.699 11.4932 22.2601 11.2906 22.5765C11.1134 22.8592 10.0165 23.5048 9.66626 23.876C9.45109 24.011 9.12199 24.6988 9.29076 25.8337C9.37514 26.4075 9.49328 26.8463 9.58188 27.1248C9.23169 27.3273 9.02917 27.5762 8.98276 27.8378C8.9701 27.9095 8.95323 28.0741 8.92791 28.3568C8.86884 28.9728 8.71273 30.6098 8.52287 30.9642C8.24863 31.4663 7.9786 32.0781 7.90688 32.2468C7.86469 32.23 7.81827 32.2173 7.77186 32.2131C7.75077 32.2131 5.51884 32.0359 4.56109 33.5927C3.98308 34.5336 3.62445 34.9302 3.48944 35.0652L2.61608 35.4449C2.55701 35.466 1.29548 35.9808 0.751211 37.3436C0.679485 37.5208 0.443213 37.6769 0.333514 37.8372C0.15631 38.0904 0.000200898 38.4194 0.0128583 38.7359C0.0212966 38.9384 0.223816 39.1705 0.544473 39.432C1.19 39.9594 1.75959 40.5459 2.47262 40.5459C2.87766 40.5459 3.28692 40.5332 3.69196 40.5164C3.88604 40.5079 4.04637 40.4573 4.18982 40.3223C4.29528 40.221 4.37545 40.0987 4.45561 39.9763C4.48093 39.9426 4.50202 39.9046 4.51046 39.8624C4.54843 39.6346 4.03793 39.2253 3.8987 39.0776C3.84385 39.0186 3.35865 38.6093 3.36708 38.5587C3.46412 38.0482 3.63289 38.0693 4.10122 37.8499C4.42608 37.698 4.75095 37.5419 5.07583 37.39C5.82684 37.0356 6.59472 36.7065 7.35417 36.3647C7.93641 36.1031 8.3077 35.5673 8.72539 35.1032C8.94479 34.8585 9.30763 34.7572 9.59876 34.6307C9.96582 34.4703 10.1726 34.2678 10.4637 33.9851C11.1134 33.3522 11.7716 32.7278 12.4931 32.1751C12.9867 31.7954 13.223 31.3144 13.5268 30.787C13.5352 30.7743 13.5437 30.7575 13.5479 30.7406L13.8559 30.0318C15.2398 30.9305 16.9232 30.5971 18.4337 30.2849C18.459 30.2807 18.4843 30.2723 18.5054 30.2638L20.1213 29.6183C19.7838 31.2089 19.9315 33.732 20.4124 34.521C20.7795 35.1243 20.7036 36.6727 20.6107 37.4069C20.3449 38.1241 19.8049 39.9004 20.5264 40.6218C20.7668 40.8623 21.0791 41.0395 21.4208 41.0606C21.8385 41.0859 22.252 40.9383 22.6612 40.875C23.889 40.6936 24.64 40.9256 25.3995 41.0058C25.7539 41.0438 26.1167 40.9847 26.4669 40.9045C26.6694 40.8581 26.9563 40.7737 27.0323 40.5543C27.2432 39.9215 25.5767 39.335 25.2434 39.1873C24.9691 39.065 24.4038 38.7401 24.0156 38.4363C23.4544 37.9933 23.3658 37.7655 23.2435 37.449C23.1211 37.1326 22.9481 36.8246 22.8806 36.4997C22.83 36.255 22.8342 35.947 22.8806 35.7065C22.9481 35.369 23.041 34.9302 23.1507 34.3227C23.3321 33.3354 23.4502 32.3354 23.4587 31.3313C23.4587 30.8292 23.3363 30.306 23.522 29.8208C23.6401 29.5213 23.8384 29.3652 23.9776 29.0909C24.2983 28.4665 24.1886 27.5594 23.9312 26.9349C23.6401 26.243 23.003 26.2219 22.3322 26.108C21.7921 26.0194 21.252 25.7789 20.7078 25.665C20.307 25.5806 19.923 25.6143 19.518 25.6396C18.9231 25.6734 18.324 25.7114 17.7291 25.7451C17.1299 25.6776 16.5182 25.5721 16.3789 25.5131C16.341 25.4667 16.1933 25.2304 16.0836 24.9857C16.2059 24.7283 16.3578 24.4541 16.4928 24.2389C16.9485 24.0321 17.4042 23.7832 17.7923 23.4626V23.4457ZM22.9102 13.8007C23.2393 13.6784 23.5895 13.729 23.9776 13.9526C25.3446 14.7374 25.7159 15.7078 25.7708 16.0453C25.256 15.9483 24.8046 15.9061 24.2814 15.8976C23.7878 15.8892 23.4629 15.6023 23.1127 15.2858C23.0241 15.2057 22.7963 15.1213 22.6739 15.134L22.2351 15.1002L21.733 15.0875L21.1888 15.0116C21.366 14.6572 22.3321 14.0201 22.9102 13.8049V13.8007ZM10.9447 17.3912C10.9025 17.3701 10.8645 17.3448 10.8265 17.3195C10.5945 17.1676 10.3751 17.0157 10.1135 16.9144L10.0713 16.8976C9.65782 16.7415 9.31185 16.4546 8.87306 16.3491C8.40474 16.2394 7.89422 16.2478 7.41746 16.1887C6.90272 16.1255 6.3922 16.0495 5.8859 15.944C5.49352 15.8639 5.03785 15.809 4.76361 15.501C4.56109 15.269 4.53578 15.1171 4.35857 14.8682C4.16872 14.6066 3.8776 14.5222 3.77212 14.21C3.68774 13.9695 3.59914 13.3324 3.58648 13.0835C3.70883 13.1763 3.81431 13.2902 3.92823 13.3914C4.00839 13.4632 4.19404 13.5518 4.24887 13.6404C4.33326 13.7838 4.42186 13.9315 4.51046 14.075C4.63282 14.2733 4.83955 13.767 4.93659 13.9188C5.16865 14.2648 5.20662 14.8724 5.3121 14.9525C5.38382 15.0074 5.51462 15.1466 5.62854 15.1972C6.06311 15.3955 6.64535 15.4884 7.1179 15.4209C7.68748 15.3365 8.18956 15.1086 8.78024 15.2015C8.83931 15.2099 8.89838 15.2226 8.95744 15.2394C9.31185 15.3323 9.64939 15.4673 9.98692 15.6065C10.2443 15.712 10.624 15.9651 10.9109 15.847C11.2569 15.6993 11.5944 15.5559 11.9488 15.4251C12.3792 15.712 12.8981 16.0284 13.4888 16.2098C14.4001 16.4925 15.2018 16.4756 15.9401 16.1634C16.2397 16.0369 16.5139 15.8512 16.7629 15.6149C17.1426 15.8343 17.3746 16.2309 17.4843 16.6444C17.535 16.8469 17.5603 17.0537 17.5561 17.2604C17.5561 17.5304 17.4126 17.7076 17.2776 17.9397C17.2565 17.9734 17.2354 18.0114 17.2354 18.0494C17.2228 18.3025 17.7248 18.1169 17.805 18.0367C17.8936 17.9481 18.0919 17.7583 18.21 17.4756C18.2775 17.3153 18.3155 17.1591 18.3282 17.003C18.5476 17.0157 19.5728 16.8047 19.653 16.4883C19.6867 16.3491 19.2648 16.4419 19.2648 16.4419C19.2648 16.4419 18.9146 16.4883 18.1805 16.2858C18.0792 16.0242 17.8599 15.4588 17.7966 15.4504C18.0244 15.4841 18.2354 15.5854 18.4632 15.6276C18.6784 15.6698 18.8893 15.6951 19.0876 15.712L19.5222 15.5517C19.577 15.5601 22.4883 15.8976 22.4587 15.8681C22.4587 15.8681 23.1844 16.4925 23.4376 16.6191C23.7793 16.7879 25.1337 16.7668 25.2645 16.7668C25.3067 16.7668 25.4037 16.7626 25.4501 16.7668C25.3784 16.8554 25.1168 17.2942 25.0366 17.4165C24.197 17.1887 24.1506 17.0368 24.0536 17.1296C23.927 17.252 23.8764 17.4292 23.9186 17.6022C23.9692 17.8047 24.159 18.0367 24.4797 18.2857C24.4333 18.3743 24.3869 18.4671 24.3405 18.5641C24.3405 18.5641 23.927 18.5304 23.8721 18.5304C23.7034 18.5304 23.1549 19.8088 22.7794 19.5767C22.6908 19.4544 22.4123 18.5726 22.0537 18.3363C21.6655 18.0789 21.0959 17.9228 20.7162 18.2857C20.5559 18.4418 20.3365 18.6274 20.2521 18.8595C20.2015 18.9945 20.1677 19.1295 20.1551 19.2561C20.1129 19.6695 20.0538 19.9185 19.961 20.3362C19.7796 21.1673 19.6614 21.1209 18.9568 21.2602C18.8007 21.2897 18.4632 21.2095 18.4885 21.0492L18.6277 20.1716C18.6277 20.1716 17.4 20.8382 17.3873 20.8467C16.9274 21.1716 16.2524 20.9944 15.784 20.7876C15.1849 20.5176 14.9908 20.083 14.8389 19.4628C14.7546 19.1211 14.7377 18.716 14.5689 18.4038C14.4086 18.1085 14.0457 17.8089 13.7504 17.6528C13.4846 17.5136 13.0669 17.5515 12.7673 17.5347C12.2104 17.5051 11.4636 17.6317 10.9447 17.387V17.3912ZM17.6784 26.6016C17.6995 26.6016 17.7248 26.6016 17.7459 26.6016L20.2732 26.4539C20.5601 26.5341 21.8849 26.9054 22.1887 26.956C22.4165 26.994 22.868 26.9982 23.0283 27.1754C23.2435 27.4117 23.4333 28.1922 23.2055 28.458C22.9946 28.7112 22.83 28.7618 22.7456 29.1162C22.6866 29.3736 22.6866 29.6436 22.6275 29.901C22.4672 30.5845 22.598 31.306 22.5558 32.0021C22.5136 32.7194 22.4165 33.4324 22.29 34.137C22.1803 34.7319 22.1971 35.2593 22.1296 35.58C22.0579 35.9259 22.1465 36.5841 22.2014 36.9385C22.2646 37.3689 22.2689 37.3351 22.4208 37.7317C22.5684 38.1157 22.7203 38.508 23.4713 39.0987C23.9312 39.4616 25.7665 39.9088 25.6779 40.1577C25.6779 40.3729 24.6611 40.0607 24.5472 40.048C24.1928 40.0016 23.8384 39.9594 23.4798 39.9637C23.1254 39.9679 22.792 40.0565 22.4418 40.1029C22.1803 40.1366 21.8723 40.2379 21.6149 40.2252C21.0833 40.1915 21.0242 39.7063 21.0622 39.2886C21.1086 38.7232 21.2605 38.1663 21.4546 37.6347C21.4672 37.6052 21.4757 37.5714 21.4799 37.5376C21.5136 37.2887 21.7879 35.061 21.1634 34.04C20.6951 33.2763 20.7247 29.6014 21.2014 29.1247C21.3491 28.977 21.3702 28.7449 21.2563 28.572C21.1424 28.399 20.9187 28.3272 20.7247 28.4074C18.8724 29.1584 16.1005 30.6646 14.2061 29.1922C14.0921 29.0909 14.8896 28.15 14.9571 28.053C15.3073 27.534 15.6364 26.9265 15.6659 26.2852C15.6659 26.2092 15.6828 26.1291 15.7039 26.0278C15.7672 26.1037 15.8262 26.1628 15.8811 26.2092C16.0836 26.3611 16.6743 26.4877 17.6826 26.6016H17.6784ZM15.7503 23.1841C15.5773 23.1925 15.3199 23.0871 15.168 23.0491C15.0499 23.0195 14.974 22.8761 14.9107 23.0702C14.8516 23.2516 15.0837 23.4541 15.1807 23.5849C15.2271 23.6482 15.6996 23.8296 15.7418 23.7663C15.4845 24.184 14.8347 25.3105 14.7883 26.2472C14.7546 26.9518 13.9782 27.9433 13.6787 28.2682C13.6449 28.3019 13.6196 28.3441 13.5985 28.3905C13.5985 28.3905 12.7547 30.3229 12.742 30.3609C12.4889 30.9473 12.0627 31.3988 11.5649 31.7869C10.7928 32.3945 10.1177 33.0822 9.40889 33.7615C9.257 33.9092 8.94901 33.9851 8.75914 34.0695C8.13049 34.3437 7.79718 34.8458 7.32463 35.3142C6.79302 35.8415 5.96185 36.1538 5.27413 36.4575C4.39654 36.8457 3.81431 37.2001 2.98736 37.4617C2.69624 37.5967 2.58232 37.7992 2.53169 38.103C2.47684 38.4321 2.56545 38.6093 2.75109 38.8709C2.88188 39.0523 3.00846 39.2422 3.173 39.3899C3.24051 39.4489 3.72149 39.6852 3.52319 39.7738C3.40928 39.8244 3.18144 39.8202 3.13503 39.8202C2.84813 39.8202 2.55701 39.7696 2.28276 39.6852C1.7849 39.5291 1.4094 39.3603 1.1014 38.9257C1.03389 38.8287 0.886224 38.6304 0.911539 38.5123C0.932634 38.3857 1.04655 38.2465 1.1225 38.1494C1.19422 38.0566 1.29126 37.9174 1.37986 37.7992C1.85241 37.1832 2.13931 36.4786 2.89032 36.1706L3.83119 35.8753C3.8776 35.8626 3.92401 35.8373 3.96198 35.8078C4.01261 35.7698 4.22778 35.4618 5.06317 34.1075C5.35429 33.6349 5.8859 33.3691 6.40486 33.2257C6.87319 33.0949 7.64529 32.9092 8.10518 33.1413C8.22331 33.2046 8.72961 33.5716 8.72961 33.175C8.72961 33.0316 8.66632 32.6687 8.72961 32.5422C8.80556 32.3692 9.04605 31.8291 9.28654 31.3861C9.54391 30.9136 9.67892 29.6731 9.79706 28.4412L9.80549 28.361C9.82237 28.1627 9.80549 28.053 9.95738 27.9222C10.0966 27.8041 10.3034 27.7914 10.4384 27.6606C10.6957 27.4117 10.4848 27.091 10.3877 26.8252C10.2738 26.5172 10.1894 26.1966 10.1515 25.8717C10.0755 25.2515 10.1641 24.5469 10.7084 24.1545C11.1472 23.8381 11.7421 23.5174 12.0332 23.0449C12.4045 22.4457 12.2864 21.5935 12.1176 20.9437C12.0037 20.5092 11.8433 20.083 11.7632 19.6442C11.683 19.1928 11.6155 18.7371 11.5438 18.2857C11.7168 18.3068 11.9066 18.3321 12.1007 18.3532C12.2231 19.1464 12.5268 19.9016 12.9192 20.5978C13.1513 21.007 13.3749 21.4542 13.7335 21.7749C13.8939 21.9184 14.1386 22.0913 14.3622 22.0998C14.5731 22.1082 14.493 21.9521 14.3875 21.8593C14.1132 21.6188 13.936 21.3741 13.7631 21.0492C13.3454 20.2476 13.1977 19.3236 13.0078 18.446C13.1724 18.4586 13.2863 18.4629 13.3622 18.4586C13.5057 18.4755 13.7251 18.5388 13.8137 18.8552C13.8939 19.1042 13.974 19.3489 14.0542 19.5978C14.1554 19.9058 14.2314 20.2307 14.3917 20.5134C14.6449 20.969 14.9486 21.3488 15.4254 21.5893C15.7967 21.7749 16.2144 21.8593 16.6279 21.8593C16.9359 21.8593 17.4126 21.6863 17.6995 21.5766C17.6826 21.5808 17.7586 22.007 17.7712 22.0449C17.8134 22.2221 17.7248 22.3614 17.6151 22.5048C17.1721 23.0533 16.4169 23.1672 15.7545 23.1968L15.7503 23.1841Z" fill="#28BABC"/>
<path d="M16.5517 10.341C16.5348 10.2693 16.5137 10.1933 16.4715 10.1343C16.4462 10.1005 16.404 10.0752 16.3618 10.0752C16.3112 10.0752 16.269 10.1089 16.2353 10.1427C15.9821 10.3916 15.729 10.8768 15.6994 11.2397C15.6783 11.5224 15.6319 11.8177 15.518 12.0793C15.4969 12.1299 15.4716 12.1806 15.4421 12.2312C15.3281 12.4421 15.1889 12.6447 15.0792 12.8598C14.9822 13.0539 14.8978 13.2607 14.8894 13.4758C14.8809 13.6657 14.9991 14.1931 15.2986 14.0539C15.4083 14.0032 15.4083 13.8345 15.4252 13.7332C15.4505 13.594 15.4927 13.4547 15.5475 13.3239C15.6572 13.0708 15.8302 12.8303 16.0792 12.6995C16.307 12.5772 16.5728 12.5603 16.8259 12.6067C17.2943 12.6911 17.7373 12.843 18.0411 13.2227C18.3111 13.556 18.2056 12.632 17.9398 12.421C17.2774 11.8979 16.2142 12.1721 16.4673 11.265C16.5517 10.957 16.6234 10.649 16.5517 10.3494V10.341Z" fill="#28BABC"/>
<path d="M4.99969 9.36208C5.27815 9.0794 5.46801 8.72077 5.69584 8.40012C5.97431 8.00352 6.74641 8.13431 7.14301 7.87694C7.21474 7.83053 7.28647 7.77146 7.32866 7.69552C7.39194 7.57738 7.36663 7.42549 7.24005 7.36221C7.17677 7.33267 7.10504 7.32845 7.03332 7.32424C6.62828 7.31158 6.21058 7.36221 5.8182 7.24829C5.52286 7.16391 5.27393 6.98248 5.07563 6.74621C4.93218 6.57323 4.72966 6.40024 4.6495 6.18506C4.59465 6.03317 4.43854 5.43406 4.18539 5.74205C3.97022 6.00364 3.91959 6.46353 4.04194 6.77153C4.05038 6.7884 4.0546 6.80528 4.06304 6.82216C4.22758 7.16391 4.57355 7.27782 4.85201 7.50988C4.90686 7.55629 4.95749 7.6027 4.98281 7.67021C5.06719 7.88116 4.86045 8.21869 4.75076 8.38746C4.61152 8.60686 4.42588 8.87688 4.25711 9.06252C4.17274 9.15113 4.05882 9.20176 3.95756 9.26926C3.7677 9.39584 3.72129 9.69962 3.98287 9.77556C3.99553 9.77556 4.15586 9.80509 4.10523 9.79244C4.54824 9.82197 4.66215 9.68696 4.98703 9.35787L4.99969 9.36208Z" fill="#28BABC"/>
<path d="M13.497 8.39189C13.6911 8.30751 13.881 8.21469 14.0582 8.09655C14.3746 7.88981 14.7121 7.57338 14.6573 7.1599C14.6193 6.89409 14.1679 7.30335 13.8852 7.38352C13.5265 7.48899 13.1764 7.62823 12.8051 7.6662C12.6447 7.68308 12.4464 7.70417 12.2481 7.70839C11.9655 7.71683 11.6701 7.69573 11.4634 7.59447C11.244 7.49321 10.7208 6.84768 10.6153 7.32023C10.5267 7.71261 10.6153 8.05858 10.9697 8.29063C11.2651 8.48049 11.6701 8.58597 12.0161 8.63238C12.1005 8.64082 12.1216 8.66614 12.1258 8.75052C12.1427 9.15556 12.206 9.82218 12.5941 10.0585C12.9274 10.2652 13.67 10.4551 14.0328 10.2483C14.151 10.1808 13.7122 10.0036 13.6827 9.99095C13.5012 9.91922 13.2861 9.8475 13.1764 9.67873C12.9992 9.40449 12.8473 8.97414 13.0624 8.69989C13.1975 8.53112 13.3325 8.45518 13.497 8.38345V8.39189Z" fill="#28BABC"/>
<path d="M21.1379 9.11352C20.8679 8.911 20.2139 9.03335 20.0789 9.61138C19.8131 10.7548 18.5558 9.77592 18.3449 9.69998C17.7795 9.49746 17.8259 10.0122 18.0664 10.316C18.2563 10.5565 18.5474 10.797 18.8258 10.9278C19.1929 11.0965 19.7076 10.9742 19.9228 11.3792C20.0156 11.5564 20.062 11.7589 20.176 11.9235C20.446 12.3159 21.3194 12.3496 20.9565 11.7378C20.9185 11.6745 20.8763 11.6155 20.8342 11.5564C20.7076 11.3792 20.5726 11.202 20.543 10.9826C20.4966 10.6451 20.7245 10.3371 20.9185 10.0586C21.0873 9.8139 21.3362 9.40464 21.1337 9.11774L21.1379 9.11352Z" fill="#28BABC"/>
<path d="M11.147 5.34549C10.9276 5.22314 10.6575 5.25689 10.4171 5.32018C9.02895 5.69146 8.15981 6.9783 8.21887 8.39172C8.23997 8.88114 8.48468 8.80942 8.6661 8.36219C8.74205 8.17654 9.16396 8.13435 9.18084 7.93605C9.18928 7.8137 9.21459 7.69134 9.25257 7.56898C9.36226 7.21036 9.52681 6.6239 9.81793 6.38762C10.2145 6.07119 10.4466 6.04587 10.8516 5.7885C11.1427 5.60708 11.4634 5.51426 11.1512 5.34127L11.147 5.34549Z" fill="#28BABC"/>
<path d="M13.9822 12.5774C14.0582 12.5056 13.7629 12.4888 13.7375 12.4845C13.5477 12.4677 13.3747 12.455 13.1933 12.4001C12.784 12.282 12.379 12.1512 12.0372 11.8896C11.6786 11.6196 11.3664 11.2694 11.1512 10.8728C11.0457 10.6745 11.0288 10.2695 10.9065 10.1176C10.8727 10.0754 10.8348 10.0459 10.7926 10.029C10.5605 9.92773 10.2863 10.2568 10.3031 10.5395C10.32 10.8348 10.4972 11.3833 10.7124 11.7715C11.1217 12.5098 13.1511 13.3579 13.9822 12.5731V12.5774Z" fill="#28BABC"/>
<path d="M15.2058 3.06723C14.8598 2.79721 14.4927 2.59891 14.0497 2.54828C13.5012 2.48077 12.9021 2.63266 12.4886 3.00817L12.4465 3.04614C12.3114 3.16427 12.1764 3.29085 12.1258 3.48915C12.0456 3.79715 12.2482 4.06295 12.5688 4.05451C12.9485 4.04186 12.8726 3.46805 13.6869 3.26553C14.2649 3.12208 14.7332 3.4343 15.2817 3.57353C15.5728 3.64948 15.8344 3.83934 15.6783 3.51024C15.5897 3.32882 15.3619 3.18959 15.2058 3.06723Z" fill="#28BABC"/>
<path d="M7.28644 12.0329C7.34973 12.0709 7.42567 12.092 7.50584 12.092C7.55225 12.092 7.59866 12.0878 7.64507 12.0751C7.78008 12.0372 7.88978 11.957 7.94463 11.8515C7.99948 11.7503 8.00791 11.6026 7.96994 11.4634C7.93197 11.3326 7.85181 11.2271 7.75477 11.1765C7.53115 11.0583 7.24425 11.1596 7.11346 11.3958C7.05439 11.4929 7.03751 11.611 7.06283 11.7292C7.09236 11.8557 7.17674 11.9739 7.28222 12.0372L7.28644 12.0329Z" fill="#28BABC"/>
<path d="M17.1424 2.82661C17.1973 2.86458 17.2648 2.88567 17.3407 2.88567C17.3745 2.88567 17.4082 2.88146 17.4462 2.87302C17.5939 2.83926 17.7289 2.74222 17.7922 2.62409C17.847 2.51861 17.8597 2.39625 17.8217 2.27812C17.7837 2.15154 17.6951 2.04606 17.5812 1.987C17.4715 1.92793 17.3365 1.91527 17.2142 1.95746C17.0918 1.99543 16.9948 2.07982 16.9399 2.19373C16.8302 2.41735 16.923 2.70847 17.1424 2.83083V2.82661Z" fill="#28BABC"/>
</g>
</svg>
