<svg width="19" height="18" viewBox="0 0 19 18" fill="none" xmlns="http://www.w3.org/2000/svg">
<path d="M0.844933 15.8023C0.603485 16.0437 0.467841 16.3712 0.467841 16.7126C0.467841 17.054 0.603485 17.3815 0.844933 17.6229C1.08638 17.8644 1.41385 18 1.75531 18C2.09677 18 2.42425 17.8644 2.66569 17.6229L9.4657 10.8212L16.2678 17.6208C16.5093 17.8622 16.8368 17.9979 17.1782 17.9979C17.5197 17.9979 17.8472 17.8622 18.0886 17.6208C18.3301 17.3794 18.4657 17.0519 18.4657 16.7105C18.4657 16.369 18.3301 16.0416 18.0886 15.8001L11.2865 9.00054L18.0865 2.19879C18.3279 1.95736 18.4636 1.6299 18.4636 1.28847C18.4636 0.947028 18.3279 0.619574 18.0865 0.37814C17.845 0.136707 17.5175 0.0010708 17.1761 0.00107079C16.8346 0.00107079 16.5072 0.136707 16.2657 0.37814L9.4657 7.17988L2.66355 0.377069C2.4221 0.135636 2.09463 -5.68837e-09 1.75317 0C1.41171 5.68837e-09 1.08424 0.135636 0.842792 0.377069C0.601344 0.618503 0.4657 0.945957 0.4657 1.2874C0.4657 1.62883 0.601344 1.95629 0.842792 2.19772L7.64494 9.00054L0.844933 15.8023Z" fill="white"/>
</svg>
